Coordinates
version=1
nRows=24
nColumns=22
inDegrees=yes

Units are S.I. units (second, meters, Newtons, ...)
If the header above contains a line with 'inDegrees', this indicates whether rotational values are in degrees (yes) or radians (no).

endheader
time	pelvis_tilt	pelvis_list	pelvis_rotation	pelvis_tx	pelvis_ty	pelvis_tz	hip_flexion_r	hip_adduction_r	hip_rotation_r	knee_angle_r	ankle_angle_r	subtalar_angle_r	hip_flexion_l	hip_adduction_l	hip_rotation_l	knee_angle_l	ankle_angle_l	subtalar_angle_l	lumbar_extension	lumbar_bending	lumbar_rotation
      2.64000000	      2.76770427	     -6.43004026	      6.00976226	     -0.68057496	      1.07487484	     -0.30821218	      6.11287489	      9.56835502	     -4.05803333	    -15.04993383	      8.07368642	     -5.18781591	     11.23528193	     -7.49327513	      2.76049483	    -62.61851404	     -3.27627876	      6.79702863	     -7.08123623	      4.75183611	     -6.06631119
      2.65000000	      2.88084888	     -6.33647465	      5.86495362	     -0.67166365	      1.07565674	     -0.30754112	      5.23243475	      9.59886043	     -3.84756867	    -14.65546229	      8.37608027	     -5.20677569	     12.32517125	     -7.46293039	      2.52960246	    -63.10706464	     -2.04696071	      5.58253476	     -7.22487715	      4.56628066	     -5.68756568
      2.66000000	      2.96699451	     -6.18792089	      5.70345363	     -0.66280065	      1.07642111	     -0.30696458	      4.38383164	      9.55512997	     -3.63227002	    -14.27563531	      8.66795225	     -5.22858965	     13.37165717	     -7.34382745	      2.29483537	    -63.32551689	     -0.80597085	      4.56582472	     -7.34758449	      4.32385234	     -5.33100839
      2.67000000	      3.02303270	     -5.99854987	      5.52047453	     -0.65400804	      1.07713539	     -0.30647072	      3.57316310	      9.45421447	     -3.38052008	    -13.91081082	      8.95260078	     -5.25341508	     14.38189495	     -7.15230924	      2.05697107	    -63.28882156	      0.39230667	      3.76063719	     -7.44846849	      4.04181195	     -4.97885834
      2.68000000	      3.05241773	     -5.77252804	      5.32833240	     -0.64527203	      1.07778564	     -0.30606254	      2.80262944	      9.29938766	     -3.12529898	    -13.56900361	      9.23393149	     -5.28209763	     15.35050254	     -6.89857098	      1.81777100	    -63.00306356	      1.51732246	      3.13836221	     -7.53008550	      3.72287753	     -4.64311364
      2.69000000	      3.05654520	     -5.52413587	      5.12296909	     -0.63657642	      1.07835100	     -0.30573041	      2.07303659	      9.10667257	     -2.86716057	    -13.25186201	      9.51647004	     -5.31118393	     16.27749755	     -6.61012625	      1.56183744	    -62.48360190	      2.53972609	      2.68349959	     -7.59190656	      3.38513579	     -4.31567211
      2.70000000	      3.03161132	     -5.27380907	      4.91174464	     -0.62792842	      1.07879035	     -0.30544849	      1.40492644	      8.89823361	     -2.64313876	    -12.98260973	      9.81019882	     -5.32995255	     17.17394931	     -6.31387370	      1.29898424	    -61.75353654	      3.47807804	      2.40595310	     -7.62955281	      3.04555309	     -3.99246125
      2.71000000	      2.99778301	     -5.00622107	      4.68262835	     -0.61929477	      1.07914120	     -0.30519735	      0.75018036	      8.66534625	     -2.37750763	    -12.72086352	     10.10866911	     -5.35722705	     18.01153522	     -6.01283999	      0.98860520	    -60.82038235	      4.27642783	      2.16907757	     -7.66430406	      2.68854550	     -3.66014433
      2.72000000	      2.96730911	     -4.74135319	      4.44572009	     -0.61063935	      1.07941298	     -0.30499673	      0.10271828	      8.42893589	     -2.09206207	    -12.47812006	     10.41581055	     -5.39439698	     18.77310294	     -5.72222286	      0.65808757	    -59.69233526	      4.95931123	      1.99322926	     -7.70200182	      2.33861048	     -3.31160019
      2.73000000	      2.93030825	     -4.49698164	      4.21920415	     -0.60195317	      1.07954957	     -0.30483073	     -0.51727175	      8.20737441	     -1.84964134	    -12.26452668	     10.72607526	     -5.42775989	     19.49122239	     -5.48204969	      0.28377365	    -58.41347260	      5.59868445	      1.91141362	     -7.72947480	      2.01171875	     -2.99369113
      2.74000000	      2.92078351	     -4.25911250	      3.99569807	     -0.59320775	      1.07962489	     -0.30471906	     -1.16439399	      7.99039185	     -1.57609795	    -12.05586736	     11.04088024	     -5.47353696	     20.11588179	     -5.27197078	     -0.13174518	    -56.98104874	      6.16087365	      1.89787224	     -7.78414732	      1.69599263	     -2.65869234
      2.75000000	      2.88404074	     -4.04790692	      3.77964818	     -0.58442122	      1.07951394	     -0.30464969	     -1.73652715	      7.79098380	     -1.37524840	    -11.92575754	     11.38390734	     -5.50430570	     20.72387833	     -5.12653883	     -0.61767660	    -55.43429261	      6.73739743	      1.93493179	     -7.80379675	      1.41063706	     -2.34694159
      2.76000000	      2.89147177	     -3.83980429	      3.57294852	     -0.57554486	      1.07937155	     -0.30464664	     -2.36808079	      7.59566214	     -1.11011710	    -11.77787651	     11.71644912	     -5.55314182	     21.22003298	     -5.01101462	     -1.15973758	    -53.76008218	      7.23559970	      2.02040427	     -7.86621321	      1.13433017	     -2.03032048
      2.77000000	      2.87666443	     -3.64856279	      3.36916423	     -0.56663681	      1.07905593	     -0.30468582	     -2.93072374	      7.40918201	     -0.88151287	    -11.71032900	     12.07407637	     -5.60139453	     21.69151279	     -4.94922678	     -1.79000321	    -51.99422106	      7.72509702	      2.09808491	     -7.90204656	      0.87856957	     -1.73406570
      2.78000000	      2.82402316	     -3.46957681	      3.15971388	     -0.55772713	      1.07854637	     -0.30476384	     -3.40164528	      7.22577337	     -0.67989332	    -11.73389274	     12.48309483	     -5.64729315	     22.15590375	     -4.92628773	     -2.50083283	    -50.14993240	      8.16485020	      2.15194415	     -7.89673446	      0.63508166	     -1.42216532
      2.79000000	      2.78159904	     -3.28284637	      2.94885764	     -0.54877326	      1.07795379	     -0.30489419	     -3.87130174	      7.03098290	     -0.43775016	    -11.78236307	     12.88990232	     -5.71339873	     22.54609636	     -4.91721517	     -3.29412447	    -48.21661028	      8.52571874	      2.19271322	     -7.90283515	      0.38770365	     -1.13078588
      2.80000000	      2.78591856	     -3.08328492	      2.74489223	     -0.53977009	      1.07734066	     -0.30510517	     -4.38338600	      6.81994829	     -0.17763010	    -11.84715864	     13.28076817	     -5.82750674	     22.81837552	     -4.90664462	     -4.15842927	    -46.19534775	      8.81386478	      2.20303570	     -7.96360966	      0.13561276	     -0.87748194
      2.81000000	      2.69017894	     -2.88068443	      2.54006362	     -0.53080230	      1.07646311	     -0.30539014	     -4.73066352	      6.59258392	      0.03622084	    -12.01397244	     13.74262318	     -5.90583994	     23.15649808	     -4.88423951	     -5.06656263	    -44.12591065	      8.96772590	      2.23574084	     -7.91395563	     -0.11988350	     -0.63426466
      2.82000000	      2.65281758	     -2.65596285	      2.34458183	     -0.52177465	      1.07560777	     -0.30578224	     -5.14732034	      6.33941053	      0.26446218	    -12.17288601	     14.17208068	     -6.03647558	     23.35675618	     -4.82351142	     -6.00257578	    -41.96927605	      9.06137631	      2.28378849	     -7.93201177	     -0.38807867	     -0.42526969
      2.83000000	      2.55779409	     -2.41749291	      2.16007547	     -0.51277092	      1.07457996	     -0.30629504	     -5.46708351	      6.06181865	      0.45019286	    -12.39622208	     14.64472408	     -6.14427663	     23.57183710	     -4.71453532	     -6.93248733	    -39.76404223	      9.01078306	      2.41138481	     -7.88892091	     -0.66287908	     -0.25001861
      2.84000000	      2.46859214	     -2.15842571	      1.99348288	     -0.50373133	      1.07350476	     -0.30693320	     -5.79315530	      5.75746506	      0.61372093	    -12.62302326	     15.11009046	     -6.26206501	     23.71696580	     -4.53743392	     -7.81456645	    -37.49491394	      8.89256950	      2.63732765	     -7.85281281	     -0.95293902	     -0.10402787
      2.85000000	      2.35641515	     -1.88004248	      1.84456755	     -0.49467610	      1.07234263	     -0.30771625	     -6.08541454	      5.42474036	      0.74240634	    -12.87084477	     15.58360673	     -6.36607189	     23.83023536	     -4.28259693	     -8.61326829	    -35.17920241	      8.69274160	      2.98106553	     -7.79053570	     -1.25415483	      0.01616149
      2.86000000	      2.24157067	     -1.58072172	      1.70785428	     -0.48561589	      1.07113791	     -0.30863800	     -6.36387544	      5.06241571	      0.85139441	    -13.14320289	     16.04846660	     -6.45567880	     23.88659654	     -3.94546167	     -9.29570824	    -32.82305176	      8.44726193	      3.47078094	     -7.72912351	     -1.56567549	      0.10318376
      2.87000000	      2.11643810	     -1.26945873	      1.58500737	     -0.47652753	      1.06989032	     -0.30968553	     -6.62605786	      4.67983689	      0.92987205	    -13.42985139	     16.49951339	     -6.51808898	     23.89409417	     -3.53308897	     -9.81674686	    -30.44309429	      8.19701776	      4.09694946	     -7.65421176	     -1.88279300	      0.17031153
